<svg width="148" height="93" viewBox="0 0 148 93" fill="none" xmlns="http://www.w3.org/2000/svg">
<path d="M67.4188 23.4516L90.55 0L100 9.48018L76.8709 32.936L64.5834 35.5455L67.4188 23.4516Z" fill="#C86DD7"/>
<path fill-rule="evenodd" clip-rule="evenodd" d="M64.5833 16.7272H68.2146L72.3354 12.5454H64.5833V16.7272ZM87.5 28.1227L91.6667 23.8928V33.4545H87.5V28.1227ZM77.0833 41.8181V46H64.5833V41.8181H77.0833ZM60.4167 41.8181H54.1667V37.6363H50V46H60.4167V41.8181ZM87.5 41.8181V37.6363H91.6667V46H81.25V41.8181H87.5ZM50 33.4545H54.1667V25.0909H50V33.4545ZM54.1667 16.7272V20.909H50V12.5454H60.4167V16.7272H54.1667Z" fill="#FFC300"/>
<path d="M70.1395 30.0924L74.7854 29.1055L94.1208 9.49692L90.5645 5.92773L71.2041 25.5572L70.1395 30.0924H70.1395Z" fill="white"/>
<path d="M12.135 81.904H5.77503L4.71903 85H0.399031L6.61503 68.152H11.343L17.559 85H13.191L12.135 81.904ZM11.079 78.784L8.96703 72.544L6.83103 78.784H11.079ZM25.2023 71.44C26.9303 71.44 28.3783 71.92 29.5463 72.88C30.7143 73.824 31.4503 75.128 31.7543 76.792H27.4103C27.2823 76.216 27.0183 75.768 26.6183 75.448C26.2183 75.128 25.7143 74.968 25.1063 74.968C24.3863 74.968 23.7943 75.256 23.3303 75.832C22.8663 76.392 22.6343 77.216 22.6343 78.304C22.6343 79.392 22.8663 80.224 23.3303 80.8C23.7943 81.36 24.3863 81.64 25.1063 81.64C25.7143 81.64 26.2183 81.48 26.6183 81.16C27.0183 80.84 27.2823 80.392 27.4103 79.816H31.7543C31.4503 81.48 30.7143 82.792 29.5463 83.752C28.3783 84.696 26.9303 85.168 25.2023 85.168C23.8903 85.168 22.7223 84.896 21.6983 84.352C20.6903 83.792 19.8983 82.992 19.3223 81.952C18.7463 80.912 18.4583 79.696 18.4583 78.304C18.4583 76.896 18.7383 75.68 19.2983 74.656C19.8743 73.616 20.6743 72.824 21.6983 72.28C22.7223 71.72 23.8903 71.44 25.2023 71.44ZM39.9445 71.44C41.6725 71.44 43.1205 71.92 44.2885 72.88C45.4565 73.824 46.1925 75.128 46.4965 76.792H42.1525C42.0245 76.216 41.7605 75.768 41.3605 75.448C40.9605 75.128 40.4565 74.968 39.8485 74.968C39.1285 74.968 38.5365 75.256 38.0725 75.832C37.6085 76.392 37.3765 77.216 37.3765 78.304C37.3765 79.392 37.6085 80.224 38.0725 80.8C38.5365 81.36 39.1285 81.64 39.8485 81.64C40.4565 81.64 40.9605 81.48 41.3605 81.16C41.7605 80.84 42.0245 80.392 42.1525 79.816H46.4965C46.1925 81.48 45.4565 82.792 44.2885 83.752C43.1205 84.696 41.6725 85.168 39.9445 85.168C38.6325 85.168 37.4645 84.896 36.4405 84.352C35.4325 83.792 34.6405 82.992 34.0645 81.952C33.4885 80.912 33.2005 79.696 33.2005 78.304C33.2005 76.896 33.4805 75.68 34.0405 74.656C34.6165 73.616 35.4165 72.824 36.4405 72.28C37.4645 71.72 38.6325 71.44 39.9445 71.44ZM61.9587 71.608V85H57.8307V82.576C57.4467 83.36 56.8707 83.984 56.1027 84.448C55.3507 84.912 54.4707 85.144 53.4627 85.144C51.9267 85.144 50.7027 84.632 49.7907 83.608C48.8947 82.584 48.4467 81.176 48.4467 79.384V71.608H52.5267V78.88C52.5267 79.792 52.7587 80.504 53.2227 81.016C53.7027 81.512 54.3427 81.76 55.1427 81.76C55.9747 81.76 56.6307 81.496 57.1107 80.968C57.5907 80.44 57.8307 79.688 57.8307 78.712V71.608H61.9587ZM69.6591 71.44C71.3551 71.44 72.7071 71.864 73.7151 72.712C74.7391 73.56 75.3791 74.68 75.6351 76.072H71.7951C71.6831 75.528 71.4271 75.104 71.0271 74.8C70.6431 74.48 70.1551 74.32 69.5631 74.32C69.0991 74.32 68.7471 74.424 68.5071 74.632C68.2671 74.824 68.1471 75.104 68.1471 75.472C68.1471 75.888 68.3631 76.2 68.7951 76.408C69.2431 76.616 69.9391 76.824 70.8831 77.032C71.9071 77.272 72.7471 77.52 73.4031 77.776C74.0591 78.016 74.6271 78.416 75.1071 78.976C75.5871 79.536 75.8271 80.288 75.8271 81.232C75.8271 82 75.6191 82.68 75.2031 83.272C74.7871 83.864 74.1871 84.328 73.4031 84.664C72.6191 85 71.6911 85.168 70.6191 85.168C68.8111 85.168 67.3631 84.768 66.2751 83.968C65.1871 83.168 64.5231 82.024 64.2831 80.536H68.2431C68.3071 81.112 68.5471 81.552 68.9631 81.856C69.3951 82.16 69.9471 82.312 70.6191 82.312C71.0831 82.312 71.4351 82.208 71.6751 82C71.9151 81.776 72.0351 81.488 72.0351 81.136C72.0351 80.672 71.8111 80.344 71.3631 80.152C70.9311 79.944 70.2191 79.728 69.2271 79.504C68.2351 79.296 67.4191 79.072 66.7791 78.832C66.1391 78.592 65.5871 78.208 65.1231 77.68C64.6591 77.136 64.4271 76.4 64.4271 75.472C64.4271 74.272 64.8831 73.304 65.7951 72.568C66.7071 71.816 67.9951 71.44 69.6591 71.44ZM83.1876 71.44C84.2116 71.44 85.0916 71.672 85.8276 72.136C86.5636 72.6 87.1076 73.232 87.4596 74.032V71.608H91.5396V85H87.4596V82.576C87.1076 83.376 86.5636 84.008 85.8276 84.472C85.0916 84.936 84.2116 85.168 83.1876 85.168C82.0836 85.168 81.0916 84.896 80.2116 84.352C79.3476 83.792 78.6596 82.992 78.1476 81.952C77.6516 80.912 77.4036 79.696 77.4036 78.304C77.4036 76.896 77.6516 75.68 78.1476 74.656C78.6596 73.616 79.3476 72.824 80.2116 72.28C81.0916 71.72 82.0836 71.44 83.1876 71.44ZM84.5076 75.04C83.6276 75.04 82.9156 75.328 82.3716 75.904C81.8436 76.48 81.5796 77.28 81.5796 78.304C81.5796 79.328 81.8436 80.128 82.3716 80.704C82.9156 81.28 83.6276 81.568 84.5076 81.568C85.3716 81.568 86.0756 81.272 86.6196 80.68C87.1796 80.088 87.4596 79.296 87.4596 78.304C87.4596 77.296 87.1796 76.504 86.6196 75.928C86.0756 75.336 85.3716 75.04 84.5076 75.04ZM111.717 71.464C113.365 71.464 114.661 71.976 115.605 73C116.549 74.008 117.021 75.416 117.021 77.224V85H112.941V77.704C112.941 76.856 112.709 76.2 112.245 75.736C111.797 75.256 111.181 75.016 110.397 75.016C109.581 75.016 108.933 75.272 108.453 75.784C107.989 76.28 107.757 76.984 107.757 77.896V85H103.653V77.704C103.653 76.856 103.429 76.2 102.981 75.736C102.533 75.256 101.917 75.016 101.133 75.016C100.317 75.016 99.6692 75.264 99.1892 75.76C98.7092 76.256 98.4692 76.968 98.4692 77.896V85H94.3652V71.608H98.4692V73.888C98.8212 73.136 99.3572 72.544 100.077 72.112C100.813 71.68 101.669 71.464 102.645 71.464C103.669 71.464 104.573 71.704 105.357 72.184C106.141 72.648 106.733 73.32 107.133 74.2C107.597 73.368 108.229 72.704 109.029 72.208C109.845 71.712 110.741 71.464 111.717 71.464ZM133.068 71.608V85H128.94V82.576C128.556 83.36 127.98 83.984 127.212 84.448C126.46 84.912 125.58 85.144 124.572 85.144C123.036 85.144 121.812 84.632 120.9 83.608C120.004 82.584 119.556 81.176 119.556 79.384V71.608H123.636V78.88C123.636 79.792 123.868 80.504 124.332 81.016C124.812 81.512 125.452 81.76 126.252 81.76C127.084 81.76 127.74 81.496 128.22 80.968C128.7 80.44 128.94 79.688 128.94 78.712V71.608H133.068ZM140.768 71.44C142.464 71.44 143.816 71.864 144.824 72.712C145.848 73.56 146.488 74.68 146.744 76.072H142.904C142.792 75.528 142.536 75.104 142.136 74.8C141.752 74.48 141.264 74.32 140.672 74.32C140.208 74.32 139.856 74.424 139.616 74.632C139.376 74.824 139.256 75.104 139.256 75.472C139.256 75.888 139.472 76.2 139.904 76.408C140.352 76.616 141.048 76.824 141.992 77.032C143.016 77.272 143.856 77.52 144.512 77.776C145.168 78.016 145.736 78.416 146.216 78.976C146.696 79.536 146.936 80.288 146.936 81.232C146.936 82 146.728 82.68 146.312 83.272C145.896 83.864 145.296 84.328 144.512 84.664C143.728 85 142.8 85.168 141.728 85.168C139.92 85.168 138.472 84.768 137.384 83.968C136.296 83.168 135.632 82.024 135.392 80.536H139.352C139.416 81.112 139.656 81.552 140.072 81.856C140.504 82.16 141.056 82.312 141.728 82.312C142.192 82.312 142.544 82.208 142.784 82C143.024 81.776 143.144 81.488 143.144 81.136C143.144 80.672 142.92 80.344 142.472 80.152C142.04 79.944 141.328 79.728 140.336 79.504C139.344 79.296 138.528 79.072 137.888 78.832C137.248 78.592 136.696 78.208 136.232 77.68C135.768 77.136 135.536 76.4 135.536 75.472C135.536 74.272 135.992 73.304 136.904 72.568C137.816 71.816 139.104 71.44 140.768 71.44Z" fill="#333333"/>
</svg>
