<svg width="56" height="56" viewBox="0 0 56 56" fill="none" xmlns="http://www.w3.org/2000/svg">
<g filter="url(#filter0_d)">
<path fill-rule="evenodd" clip-rule="evenodd" d="M10 6C10 2.686 12.688 0 16 0C19.312 0 22 2.686 22 6C22 9.314 19.312 12 16 12C12.688 12 10 9.314 10 6ZM18 6C18 4.898 17.104 4 16 4C14.896 4 14 4.898 14 6C14 7.102 14.896 8 16 8C17.104 8 18 7.102 18 6ZM48 24C48 22.896 47.104 22 46 22C44.896 22 44 22.896 44 24C44 25.102 44.896 26 46 26C47.104 26 48 25.104 48 24ZM16 40C17.104 40 18 40.898 18 42C18 43.102 17.104 44 16 44C14.896 44 14 43.102 14 42C14 40.898 14.896 40 16 40ZM46 18C42.688 18 40 20.686 40 24C40 27.314 42.688 30 46 30C49.312 30 52 27.314 52 24C52 20.686 49.312 18 46 18ZM10 42C10 38.686 12.686 36 16 36C19.312 36 22 38.686 22 42C22 45.314 19.312 48 16 48C12.686 48 10 45.314 10 42Z" fill="#C86DD7"/>
</g>
<g filter="url(#filter1_d)">
<path fill-rule="evenodd" clip-rule="evenodd" d="M25.176 2.042L26 2C34.562 2 41.962 6.9 45.6 14.042C44.166 14.1 42.82 14.462 41.604 15.064C38.494 9.658 32.672 6 26 6C26 4.594 25.702 3.256 25.176 2.042ZM45.6 33.958C41.962 41.1 34.562 46 26 46L25.176 45.958C25.702 44.744 26 43.406 26 42C32.672 42 38.494 38.342 41.604 32.936C42.82 33.54 44.166 33.902 45.6 33.958ZM4 24C4 28.57 5.394 32.812 7.78 36.33C8.562 35.198 9.582 34.252 10.754 33.524C9.02 30.758 8 27.5 8 24C8 20.5 9.02 17.242 10.754 14.476C9.582 13.748 8.564 12.802 7.78 11.67C5.394 15.188 4 19.43 4 24Z" fill="#FFC300"/>
</g>
<defs>
<filter id="filter0_d" x="6" y="0" width="50" height="56" filterUnits="userSpaceOnUse" color-interpolation-filters="sRGB">
<feFlood flood-opacity="0" result="BackgroundImageFix"/>
<feColorMatrix in="SourceAlpha" type="matrix" values="0 0 0 0 0 0 0 0 0 0 0 0 0 0 0 0 0 0 127 0"/>
<feOffset dy="4"/>
<feGaussianBlur stdDeviation="2"/>
<feColorMatrix type="matrix" values="0 0 0 0 0 0 0 0 0 0 0 0 0 0 0 0 0 0 0.25 0"/>
<feBlend mode="normal" in2="BackgroundImageFix" result="effect1_dropShadow"/>
<feBlend mode="normal" in="SourceGraphic" in2="effect1_dropShadow" result="shape"/>
</filter>
<filter id="filter1_d" x="0" y="2" width="49.6" height="52" filterUnits="userSpaceOnUse" color-interpolation-filters="sRGB">
<feFlood flood-opacity="0" result="BackgroundImageFix"/>
<feColorMatrix in="SourceAlpha" type="matrix" values="0 0 0 0 0 0 0 0 0 0 0 0 0 0 0 0 0 0 127 0"/>
<feOffset dy="4"/>
<feGaussianBlur stdDeviation="2"/>
<feColorMatrix type="matrix" values="0 0 0 0 0 0 0 0 0 0 0 0 0 0 0 0 0 0 0.25 0"/>
<feBlend mode="normal" in2="BackgroundImageFix" result="effect1_dropShadow"/>
<feBlend mode="normal" in="SourceGraphic" in2="effect1_dropShadow" result="shape"/>
</filter>
</defs>
</svg>
