<svg width="48" height="48" fill="none" xmlns="http://www.w3.org/2000/svg"><path fill-rule="evenodd" clip-rule="evenodd" d="M22 12v16h14v-4H26V12h-4zm21.708 15.366l3.996.318a23.883 23.883 0 01-1.304 4.92l-3.6-1.81c.4-1.102.706-2.246.908-3.428zm-7.922 12.766l2.826 2.886a23.86 23.86 0 01-4.598 2.778l-1.338-3.798a19.891 19.891 0 003.11-1.866zm5.278-5.732a20.182 20.182 0 01-2.298 3.056l2.808 2.866a24.075 24.075 0 003.078-4.116L41.064 34.4zm2.33-15.118h4.152c.284 1.428.434 2.906.454 4.416l-4.03-.322a20.324 20.324 0 00-.576-4.094z" fill="#C86DD7"/><path d="M0 24c0 13.254 10.75 24 24.008 24 2.162 0 4.248-.312 6.24-.848l-1.33-3.788a19.89 19.89 0 01-4.91.636C12.976 44 4.002 35.028 4.002 24S12.976 4 24.008 4c4.47 0 8.586 1.488 11.918 3.978l-4.1 4.098 14.03 2.708L43.146.758l-4.368 4.366C34.706 1.928 29.588 0 24.008 0 10.75 0 0 10.746 0 24z" fill="#FFC300"/></svg>