<svg width="56" height="56" fill="none" xmlns="http://www.w3.org/2000/svg"><g filter="url(#filter0_d)"><path fill-rule="evenodd" clip-rule="evenodd" d="M10 6a6 6 0 0112 0 6 6 0 01-12 0zm8 0c0-1.102-.896-2-2-2s-2 .898-2 2c0 1.102.896 2 2 2s2-.898 2-2zm30 18a2 2 0 00-4 0 2 2 0 004 0zM16 40c1.104 0 2 .898 2 2 0 1.102-.896 2-2 2s-2-.898-2-2c0-1.102.896-2 2-2zm30-22a6 6 0 000 12 6 6 0 000-12zM10 42a6 6 0 1112 0 6 6 0 01-12 0z" fill="#C86DD7"/></g><g filter="url(#filter1_d)"><path fill-rule="evenodd" clip-rule="evenodd" d="M25.176 2.042L26 2c8.562 0 15.962 4.9 19.6 12.042a9.867 9.867 0 00-3.996 1.022C38.494 9.658 32.672 6 26 6a9.934 9.934 0 00-.824-3.958zM45.6 33.958C41.962 41.1 34.562 46 26 46l-.824-.042A9.934 9.934 0 0026 42c6.672 0 12.494-3.658 15.604-9.064a9.803 9.803 0 003.996 1.022zM4 24c0 4.57 1.394 8.812 3.78 12.33a10.03 10.03 0 012.974-2.806A17.87 17.87 0 018 24c0-3.5 1.02-6.758 2.754-9.524A10.054 10.054 0 017.78 11.67 21.888 21.888 0 004 24z" fill="#FFC300"/></g><defs><filter id="filter0_d" x="6" y="0" width="50" height="56" filterUnits="userSpaceOnUse" color-interpolation-filters="sRGB"><feFlood flood-opacity="0" result="BackgroundImageFix"/><feColorMatrix in="SourceAlpha" values="0 0 0 0 0 0 0 0 0 0 0 0 0 0 0 0 0 0 127 0"/><feOffset dy="4"/><feGaussianBlur stdDeviation="2"/><feColorMatrix values="0 0 0 0 0 0 0 0 0 0 0 0 0 0 0 0 0 0 0.25 0"/><feBlend in2="BackgroundImageFix" result="effect1_dropShadow"/><feBlend in="SourceGraphic" in2="effect1_dropShadow" result="shape"/></filter><filter id="filter1_d" x="0" y="2" width="49.6" height="52" filterUnits="userSpaceOnUse" color-interpolation-filters="sRGB"><feFlood flood-opacity="0" result="BackgroundImageFix"/><feColorMatrix in="SourceAlpha" values="0 0 0 0 0 0 0 0 0 0 0 0 0 0 0 0 0 0 127 0"/><feOffset dy="4"/><feGaussianBlur stdDeviation="2"/><feColorMatrix values="0 0 0 0 0 0 0 0 0 0 0 0 0 0 0 0 0 0 0.25 0"/><feBlend in2="BackgroundImageFix" result="effect1_dropShadow"/><feBlend in="SourceGraphic" in2="effect1_dropShadow" result="shape"/></filter></defs></svg>