<svg width="44" height="48" fill="none" xmlns="http://www.w3.org/2000/svg"><path fill-rule="evenodd" clip-rule="evenodd" d="M.75 39.422c2.277 3.418 7.999 2.044 11.833.634 9.392-3.452 21.656-12.39 27.824-20.664 4.383-5.878 3.965-9.124 2.84-10.814-.65-.976-2.02-2.138-4.862-2.138-5.174 0-12.18 3.594-16.608 6.32-4.362-2.572-11.136-5.892-16.164-5.892-2.83 0-4.2 1.132-4.848 2.084-.924 1.352-1.382 3.71.838 7.63a3.883 3.883 0 00-.492 1.9c0 2.134 1.7 3.864 3.794 3.864 2.094 0 3.794-1.73 3.794-3.864s-1.698-3.864-3.794-3.864l-.42.024c-1.166-2.118-1.152-3.3-.89-3.684.246-.364 1.002-.578 2.018-.578 1.592 0 3.67.482 6.03 1.35 2.304.85 4.666 1.99 6.832 3.182-4.498 3.096-7.948 6.088-11.01 9.196-1.366 1.408-2.71 2.938-3.874 4.498-4.382 5.88-3.964 9.126-2.84 10.816zm39.641-28.876c.372.558.28 2.684-2.732 6.722-3.874 5.198-10.054 10.302-15.472 13.854-4.414 2.894-11.874 6.928-16.574 6.928-1.022 0-1.754-.218-2.006-.596-.746-1.122.842-5.294 6.478-11.05a76.882 76.882 0 006.632 5.264l.026.018a61.53 61.53 0 003.304-1.96 74.187 74.187 0 01-7.442-5.746 75.697 75.697 0 019.206-7.102 75.693 75.693 0 017.8 5.622 57.248 57.248 0 002.542-2.422 79.71 79.71 0 00-7.044-5.234c3.424-1.976 9.37-4.894 13.276-4.894 1.022 0 1.754.218 2.006.596z" fill="#C86DD7"/><path fill-rule="evenodd" clip-rule="evenodd" d="M18.52 8.342a52.277 52.277 0 00-3.163-1.438C16.897 2.744 19.121 0 22 0c2.804 0 4.988 2.602 6.52 6.584-.984.422-1.996.894-3.144 1.478C24.2 4.928 22.86 3.512 22 3.512c-.884 0-2.28 1.5-3.48 4.83zM22 44.488c-.859 0-2.2-1.416-3.377-4.55a52.601 52.601 0 01-3.144 1.478C17.013 45.398 19.195 48 22 48c2.878 0 5.102-2.744 6.642-6.904a52.487 52.487 0 01-3.162-1.438c-1.2 3.33-2.596 4.83-3.48 4.83zm20.853-14.844c0 .652-.158 1.266-.44 1.806 2.202 3.9 1.744 6.252.822 7.6-.648.952-2.018 2.084-4.848 2.084-4.342 0-10.006-2.516-13.858-4.59a80.807 80.807 0 003.318-2.238c2.874 1.426 7.336 3.316 10.54 3.316 1.016 0 1.77-.214 2.018-.576.258-.378.276-1.526-.83-3.574l-.516.036c-2.096 0-3.794-1.73-3.794-3.864s1.698-3.864 3.794-3.864 3.794 1.73 3.794 3.864z" fill="#FFC300"/></svg>