<svg width="32" height="32" fill="none" xmlns="http://www.w3.org/2000/svg"><path fill-rule="evenodd" clip-rule="evenodd" d="M16 0C7.164 0 0 7.164 0 16s7.164 16 16 16 16-7.164 16-16S24.836 0 16 0zm0 2.667c7.352 0 13.333 5.981 13.333 13.333S23.352 29.333 16 29.333 2.667 23.352 2.667 16 8.648 2.667 16 2.667zm3.128 13.405a3.141 3.141 0 01-3.139 3.139 3.144 3.144 0 01-3.138-3.139c0-.94.417-1.783 1.073-2.359a3.108 3.108 0 012.065-.779 3.117 3.117 0 012.068.78 3.137 3.137 0 011.071 2.358zM16 13.753a2.317 2.317 0 012.317 2.319 2.318 2.318 0 11-4.634 0A2.317 2.317 0 0116 13.753zM24 14h-4.519c.363.61.582 1.313.582 2.072a4.074 4.074 0 01-8.147 0c0-.759.22-1.463.581-2.072H8v6.852C8 22.591 9.45 24 11.19 24h9.662A3.149 3.149 0 0024 20.852V14zm-3.148-6h-8.185v3.333H12V8h-.667v3.333h-.666V8.052a3.17 3.17 0 00-.667.179v3.102h-.667V8.6A3.128 3.128 0 008 11.148v2.185h4.981a4.056 4.056 0 016.015 0H24v-2.186A3.149 3.149 0 0020.852 8zm1.317 4c.276 0 .498-.22.498-.49V9.822c0-.27-.222-.49-.498-.49h-1.673a.494.494 0 00-.496.49v1.686c0 .271.223.491.496.491h1.673z" fill="#C86DD7"/></svg>