<svg width="32" height="32" fill="none" xmlns="http://www.w3.org/2000/svg"><path fill-rule="evenodd" clip-rule="evenodd" d="M16 0C7.164 0 0 7.164 0 16s7.164 16 16 16 16-7.164 16-16S24.836 0 16 0zm0 2.667c7.352 0 13.333 5.981 13.333 13.333S23.352 29.333 16 29.333 2.667 23.352 2.667 16 8.648 2.667 16 2.667zm6.781 9.554a6.572 6.572 0 001.886-.517 6.618 6.618 0 01-1.639 1.699c.208 4.617-3.235 9.765-9.33 9.765a9.284 9.284 0 01-5.031-1.475 6.606 6.606 0 004.862-1.361 3.287 3.287 0 01-3.066-2.279c.514.099 1.021.07 1.482-.056-1.578-.317-2.669-1.74-2.633-3.26.443.246.948.394 1.485.411a3.287 3.287 0 01-1.016-4.383 9.324 9.324 0 006.766 3.43A3.286 3.286 0 0122.14 11.2a6.566 6.566 0 002.085-.796 3.296 3.296 0 01-1.444 1.816z" fill="#fff"/></svg>